<?xml version="1.0" encoding="utf-8"?>
<!-- Generator: Adobe Illustrator 15.0.0, SVG Export Plug-In . SVG Version: 6.00 Build 0)  -->
<!DOCTYPE svg PUBLIC "-//W3C//DTD SVG 1.1//EN" "http://www.w3.org/Graphics/SVG/1.1/DTD/svg11.dtd">
<svg version="1.1" id="Ebene_1" xmlns="http://www.w3.org/2000/svg" xmlns:xlink="http://www.w3.org/1999/xlink" x="0px" y="0px"
	 width="200px" height="200px" viewBox="0 0 200 200" enable-background="new 0 0 200 200" xml:space="preserve">
<path fill="#222222" d="M13.25,62.664c0.874-2.08,1.937-5.468,2.254-7.742c1.088-8.264,4.345-18.125,15.184-25.702
	c1.853-1.374,4.821-3.441,6.65-4.873c5.586-4.298,9.217-5.62,13.329-5.565c2.279,0.055,6.038,1.06,8.159,0.318
	c2.385-0.856,2.067-3.5,3.499-5.676c1.536-2.326,5.193-5.934,9.725-7.425c2.167-0.687,5.91-0.632,8.161-0.949
	c0.502-0.098,0.95-0.208,1.426-0.317c2.202-0.47,5.591-0.852,7.872-0.631c1.852,0.162,3.869,0,4.93-1.118
	c2.28-2.436,11.151,1.118,12.767,1.542c1.591,0.318,3.872-2.063,10.682-0.423c5.62,1.266,11.817,2.753,17.458,5.769
	c2.018,1.06,5.034,3.236,6.996,4.351c3.127,1.808,3.92,1.749,9.541,7.259c7.182,7.15,2.333,4.559,12.028,11.763
	c9.725,7.26,4.876,8.112,12.899,9.972c8.002,1.901,5.834,1.529,10.467,5.772c10.655,9.793,11.817,15.148,9.779,20.137
	c-2.012,4.917-0.447-0.482-2.036,4.558c-1.669,5.083-0.85,4.93,0.473,8.582c2.886,7.946,2.996,5.934,2.336,9.902
	c-1.144,6.637-0.614,4.296-2.441,10.289c-1.432,4.669-2.649,4.021-3.047,7.465c-0.287,2.286-0.133,5.992-0.023,8.277
	c0.182,3.705,0.421,3.442-0.19,8.678c-0.606,5.358-3.1,6.528-4.821,10.495c-0.872,2.065-1.48,5.783-1.693,8.002
	c-0.689,5.828-0.455,10.606-0.8,12.933c-0.234,1.654-2.729,5.455-5.88,9.547c-3.792,4.916-10.097,12.711-15.075,15.782
	c-2.198,1.335-5.165,2.385-10.095,3.292c-8.136,1.583-3.629,5.138-8.025,7.412c-5.774,2.973-18.761,2.396-27.692,2.023
	c-6.065-0.316-8.158-1.062-16.135-1.393c-11.367-0.356-16.217,5.096-27.559,1.859c-2.199-0.632-5.595-2.062-7.732-2.851
	c-10.973-3.829-13.596-2.232-19.719-13.471c-2.672-4.984-6.252-7.687-9.78-9.475c-6.829-3.347-14.749-8.374-16.608-12.356
	c-0.978-2.065-1.907-4.336-3.125-7.365c-2.673-6.518-3.046-12.136-8.981-17.493c-5.933-5.346-9.008-25.055-4.477-30.522
	c4.559-5.508,0.208-10.962,0.057-15.151c-0.057-2.064,0.948-4.613,2.01-6.721c1.06-2.022,2.596-5.3,3.257-7.478
	C10.208,70.763,11.659,66.202,13.25,62.664z"/>
</svg>
